<?xml version="1.0" standalone="no"?>
<!DOCTYPE svg PUBLIC "-//W3C//DTD SVG 20010904//EN"
 "http://www.w3.org/TR/2001/REC-SVG-20010904/DTD/svg10.dtd">
<svg version="1.0" xmlns="http://www.w3.org/2000/svg"
 width="260.000000pt" height="260.000000pt" viewBox="0 0 260.000000 260.000000"
 preserveAspectRatio="xMidYMid meet">
<metadata>
Created by potrace 1.14, written by Peter Selinger 2001-2017
</metadata>
<g transform="translate(0.000000,260.000000) scale(0.100000,-0.100000)"
fill="#000000" stroke="none">
<path d="M0 1300 l0 -1300 1300 0 1300 0 0 1300 0 1300 -1300 0 -1300 0 0
-1300z m1471 841 c126 -48 242 -219 251 -370 l3 -45 -100 -38 c-55 -21 -101
-38 -101 -38 -1 0 -7 28 -14 63 -32 166 -109 243 -226 224 -78 -13 -141 -99
-132 -181 9 -73 36 -111 161 -227 363 -333 424 -411 449 -575 24 -153 -21
-305 -117 -393 -90 -83 -202 -116 -371 -109 -92 4 -109 8 -175 41 -152 74
-225 183 -262 393 l-6 31 125 38 c69 20 127 35 130 33 2 -3 13 -39 23 -81 42
-163 105 -227 223 -227 107 0 160 51 166 162 4 55 0 76 -21 120 -32 70 -60 98
-270 278 -251 214 -306 289 -327 444 -21 145 16 279 99 364 46 47 140 97 212
112 72 15 216 5 280 -19z"/>
</g>
</svg>
